<svg width="20" height="14" viewBox="0 0 20 14" fill="none" xmlns="http://www.w3.org/2000/svg">
<path d="M6.37513 9.54747C8.61872 9.54747 10.4375 7.72868 10.4375 5.48509C10.4375 3.24149 8.61872 1.4227 6.37513 1.4227C4.13153 1.4227 2.31274 3.24149 2.31274 5.48509C2.31274 7.72868 4.13153 9.54747 6.37513 9.54747Z" stroke="#B3B9C9" stroke-width="1.5" stroke-miterlimit="10"/>
<path d="M11.6416 1.57395C12.2004 1.41652 12.7863 1.38065 13.3601 1.46877C13.9339 1.55689 14.4821 1.76694 14.9679 2.08478C15.4537 2.40261 15.8657 2.82085 16.1762 3.31133C16.4867 3.80181 16.6885 4.35313 16.768 4.92817C16.8475 5.5032 16.8028 6.0886 16.637 6.64492C16.4712 7.20124 16.1881 7.71558 15.8068 8.15328C15.4255 8.59099 14.9548 8.9419 14.4265 9.18238C13.8981 9.42285 13.3244 9.54732 12.7439 9.54739" stroke="#B3B9C9" stroke-width="1.5" stroke-linecap="round" stroke-linejoin="round"/>
<path d="M0.75 12.4689C1.38446 11.5664 2.22675 10.8299 3.20575 10.3214C4.18475 9.81288 5.27172 9.54741 6.3749 9.54737C7.47808 9.54733 8.56507 9.81271 9.54411 10.3211C10.5232 10.8295 11.3655 11.566 12 12.4685" stroke="#B3B9C9" stroke-width="1.5" stroke-linecap="round" stroke-linejoin="round"/>
<path d="M12.7439 9.54737C13.8472 9.54657 14.9344 9.81163 15.9135 10.3201C16.8926 10.8286 17.7348 11.5655 18.3688 12.4685" stroke="#B3B9C9" stroke-width="1.5" stroke-linecap="round" stroke-linejoin="round"/>
</svg>
